/* XPM */
static char *bd8ea11618ff4852b4b5d72e4da2f9fcDbe2ag68NkyT3bNC[] = {
/* columns rows colors chars-per-pixel */
"64 64 242 2 ",
"   c None",
".  c black",
"X  c #000001",
"o  c #000002",
"O  c #000004",
"+  c #000005",
"@  c #000006",
"#  c #000007",
"$  c #000008",
"%  c #000009",
"&  c #00000B",
"*  c #00000C",
"=  c #00000D",
"-  c #00000E",
";  c #12120E",
":  c #000010",
">  c #000012",
",  c #000013",
"<  c #000014",
"1  c #000015",
"2  c #000016",
"3  c #000017",
"4  c #000018",
"5  c #000019",
"6  c #00001A",
"7  c #00001B",
"8  c #00001C",
"9  c #00001D",
"0  c #00001E",
"q  c #00001F",
"w  c #0B061E",
"e  c #26170B",
"r  c #19211E",
"t  c #3A2917",
"y  c #000020",
"u  c #000021",
"i  c #000022",
"p  c #000023",
"a  c #000024",
"s  c #000025",
"d  c #000026",
"f  c #000027",
"g  c #010027",
"h  c #0D0D23",
"j  c #0F0B26",
"k  c #000028",
"l  c #000029",
"z  c #00002A",
"x  c #01002A",
"c  c #00002B",
"v  c #01002B",
"b  c #00002C",
"n  c #01002C",
"m  c #00002D",
"M  c #01002D",
"N  c #02002D",
"B  c #00002E",
"V  c #01002E",
"C  c #00002F",
"Z  c #01002F",
"A  c #02002E",
"S  c #02012E",
"D  c #02002F",
"F  c #02012F",
"G  c #05022F",
"H  c #0D0A2C",
"J  c #000030",
"K  c #010030",
"L  c #000031",
"P  c #010031",
"I  c #020030",
"U  c #020031",
"Y  c #000032",
"T  c #010032",
"R  c #000033",
"E  c #010033",
"W  c #020032",
"Q  c #030032",
"!  c #020132",
"~  c #020033",
"^  c #030133",
"/  c #000034",
"(  c #010034",
")  c #000035",
"_  c #010035",
"`  c #020034",
"'  c #030034",
"]  c #030134",
"[  c #020035",
"{  c #030035",
"}  c #030135",
"|  c #030235",
" . c #000036",
".. c #010036",
"X. c #000037",
"o. c #020036",
"O. c #030036",
"+. c #030136",
"@. c #020037",
"#. c #030037",
"$. c #040034",
"%. c #040134",
"&. c #040035",
"*. c #040135",
"=. c #040235",
"-. c #040335",
";. c #040036",
":. c #050036",
">. c #040136",
",. c #040037",
"<. c #050037",
"1. c #040137",
"2. c #050137",
"3. c #040236",
"4. c #050336",
"5. c #040237",
"6. c #0B0732",
"7. c #0C0730",
"8. c #0B0637",
"9. c #000038",
"0. c #000039",
"q. c #020038",
"w. c #020039",
"e. c #040038",
"r. c #050038",
"t. c #050138",
"y. c #050039",
"u. c #040139",
"i. c #050139",
"p. c #060038",
"a. c #060138",
"s. c #060039",
"d. c #070039",
"f. c #060139",
"g. c #040238",
"h. c #050238",
"j. c #050338",
"k. c #050239",
"l. c #050339",
"z. c #060339",
"x. c #04013B",
"c. c #07003A",
"v. c #06013A",
"b. c #07013A",
"n. c #05033A",
"m. c #05023B",
"M. c #06023A",
"N. c #06033A",
"B. c #06033B",
"V. c #07033B",
"C. c #05043A",
"Z. c #06043A",
"A. c #06043B",
"S. c #07043B",
"D. c #06053B",
"F. c #07053B",
"G. c #06033C",
"H. c #06043C",
"J. c #07043C",
"K. c #06053C",
"L. c #07053C",
"P. c #06043D",
"I. c #07043D",
"U. c #06053D",
"Y. c #07053D",
"T. c #07053E",
"R. c #07063E",
"E. c #07063F",
"W. c #080039",
"Q. c #08003B",
"!. c #08013B",
"~. c #08023B",
"^. c #080538",
"/. c #08033C",
"(. c #08043C",
"). c #08053D",
"_. c #08063D",
"`. c #08053E",
"'. c #08043F",
"]. c #08063E",
"[. c #08073E",
"{. c #08063F",
"}. c #08073F",
"|. c #1A0E38",
" X c #1B1137",
".X c #1C173B",
"XX c #282520",
"oX c #242C2C",
"OX c #372D29",
"+X c #273432",
"@X c #383533",
"#X c #3F363A",
"$X c #343938",
"%X c #502F1A",
"&X c #593D1C",
"*X c #453222",
"=X c #4C3921",
"-X c #5E4D2F",
";X c #4B453F",
":X c #524432",
">X c #584732",
",X c #594735",
"<X c #644A28",
"1X c #63543A",
"2X c #7D5138",
"3X c #755E3D",
"4X c #7C683C",
"5X c #060340",
"6X c #070541",
"7X c #060443",
"8X c #070645",
"9X c #070546",
"0X c #070447",
"qX c #080540",
"wX c #080640",
"eX c #080740",
"rX c #080641",
"tX c #080741",
"yX c #080742",
"uX c #080644",
"iX c #080744",
"pX c #080840",
"aX c #080841",
"sX c #080842",
"dX c #06034A",
"fX c #474540",
"gX c #494C45",
"hX c #4E4E48",
"jX c #5B5046",
"kX c #5D5749",
"lX c #59554C",
"zX c #5A5753",
"xX c #665547",
"cX c #6A5743",
"vX c #665449",
"bX c #615C4E",
"nX c #635C4F",
"mX c #73654F",
"MX c #74694E",
"NX c #696255",
"BX c #8C6B3B",
"VX c #836644",
/* pixels */
"                                                                                                                                ",
"                                                                                                                                ",
"                                                                                                                                ",
"                                                                                                                                ",
"                                                                                                                                ",
"                                                                                                                                ",
"                                                                                                                                ",
"                                                                                                                                ",
"                                                                                                                                ",
"                                                                                                                                ",
"                                                                                                                                ",
"                                                                                                                                ",
"                                                                                                                                ",
"    4X3XfX$XoX                                                                                                                  ",
"  lXnXnXkX1X<X%X                                                                                                                ",
"cXmXNXzXVXBX>X*X                                                                                                      y y       ",
"jXMXxX#X,XgX:X=X; . @                                                                                       v v s s q 7 7 y v   ",
"hXvX.XH OX;X-X&Xe . . % : <                                                                           S S R v y q < - % : s v s ",
"  2X|.R j @X+Xr       @ - < 7 q q                                                               R | | S v y q           y v S y ",
"     Xy.R h XXt             < y y s s s                                                     | g.| S v                 s S R S   ",
"      y.y.R w                     s s v v v                                             y.y.%.S v                     S R S s   ",
"      y.~.~.R y                         v S S S                                   y.z.z.%.S                       s S R S v     ",
"        %.[.~.%.s                           S S | R                           L.L.z.4.S                         v R | | S       ",
"          y.[.[.%.v                             R | | %.                  L.L.z.4.                            S | | | S         ",
"            y.}.}.y.S q                             %.%.%.%.          z.}.z.4.                              S | g.g.S           ",
"              z.[.sX~.R s                               | y.y.%.  L.6XL.-.                              v R g.y.| S             ",
"                y.L.sX}.%.v                                 g.L.6X6Xg.                                S | y.y.| S               ",
"                    L.sXsXz.R s                             L.L.m.L.L.|                             | %.~.y.R S                 ",
"                      z.sXsXL.%.v                       z.L.4.      L.L.L.|                     R %.~.~.y.R s                   ",
"                        z.6XsX6Xy.R s               z.z.4.              z.sXz.              S %.y.~.~.%.S                       ",
"                            L.sXsX[.%.S         y.W.%.S                     L.L.4.        R 4.[.~.y.R v                         ",
"                              z.}.sXtXy.R s s %.%.R                           z.[.z.R S %.~.}.~.y.R                             ",
"                                | L.sXsX}.y.S v                                   | | y.}.}.~.%.S                               ",
"                                    y.[.sXsXm.| v                               | y.[.tX[.%.R                                   ",
"                                    R S z.sXsX}.z.R v                       R %.L.sXsXy.| R %.                                  ",
"                                S R v     %.[.sXsX[.y.S s               R %.[.sXsXL.%.S     %.y.R                               ",
"                              S v y           y.tXsXsX[.y.S y       S %.[.tXtX[.y.R           %.%.%.                            ",
"                          v v y <                 y.tXsXtX/.| S S y.m.tXtXtXy.%.S                 | | v                         ",
"                        s y 7                       %.[.tXtXtXm.5X6XsXtX[.%.R                       | R v                       ",
"                      y 7 :                             %.tXtXiXdXiX6Xy.S                             S R v                     ",
"                    7 : %                           G %.m.tXtX0XdX9X6Xy.R v y                           v S v q                 ",
"                q : @ .                         7.8.[.tXsXtX[.y.y.L.}.sX[.y.R v y                           v v q               ",
"              < - .                         6.~.[.tXsXsX[.%.R       %.z.[.[.[.y.R S y                         s y 7             ",
"            < % .                     S | z.}.sXsXsXL.%.R               | y.L.L.~.y.| S s                       y q <           ",
"            % . .                 R 4.z.}.sXsXL.y.%.R                       | y.y.~.~.y.%.R s y                   7 : -         ",
"          < @ .             R | z.L.sXsXsXL.y.|                                 | %.%.y.~.%.| R v y q             - - @         ",
"          7 - -     v S %.%.L.tXsXsX}.~.%.R                                           | %.y.~.y.| | S s q 7         @ @ -       ",
"        R R S S R | y./.[.sXtXL.L.%.R                                                     | R %.g.g.g.R R S s y q < < : <       ",
"          g.y.y././.[./.z.y.%.|                                                                 R R | | R R S S S v s s q       ",
"            | | y.%.R |                                                                                 R S S R S v v s         ",
"                                                                                                                                ",
"                                                                                                                                ",
"                                                                                                                                ",
"                                                                                                                                ",
"                                                                                                                                ",
"                                                                                                                                ",
"                                                                                                                                ",
"                                                                                                                                ",
"                                                                                                                                ",
"                                                                                                                                ",
"                                                                                                                                ",
"                                                                                                                                ",
"                                                                                                                                ",
"                                                                                                                                "
};
