/* XPM */
static char * C:\Users\Bago\Documents\runebase_icons\bitcoin64_xpm[] = {
"64 64 451 2",
"  	c None",
". 	c #818681",
"+ 	c #848A82",
"@ 	c #8E8D80",
"# 	c #82847D",
"$ 	c #6E7977",
"% 	c #9F9478",
"& 	c #979286",
"* 	c #A49F8F",
"= 	c #B9AA89",
"- 	c #96968D",
"; 	c #898A7D",
"> 	c #8A7E62",
", 	c #A3967A",
"' 	c #A39C8D",
") 	c #9A958E",
"! 	c #8F8D87",
"~ 	c #A09C8F",
"{ 	c #B6A47C",
"] 	c #89826B",
"^ 	c #63696C",
"/ 	c #626771",
"( 	c #646873",
"_ 	c #63687B",
": 	c #62677A",
"< 	c #63697B",
"[ 	c #686E7E",
"} 	c #727784",
"| 	c #7E828C",
"1 	c #82868E",
"2 	c #989385",
"3 	c #A69C8F",
"4 	c #858181",
"5 	c #797876",
"6 	c #989489",
"7 	c #99988A",
"8 	c #87846A",
"9 	c #56585D",
"0 	c #434861",
"a 	c #4A4F64",
"b 	c #4D5266",
"c 	c #525768",
"d 	c #585D6C",
"e 	c #5C6077",
"f 	c #555A75",
"g 	c #515673",
"h 	c #4C5171",
"i 	c #494D70",
"j 	c #44486E",
"k 	c #565A75",
"l 	c #656B7D",
"m 	c #707585",
"n 	c #7A7E8A",
"o 	c #767A82",
"p 	c #7D8288",
"q 	c #878B88",
"r 	c #94938E",
"s 	c #767A83",
"t 	c #6A6F79",
"u 	c #8A8984",
"v 	c #959187",
"w 	c #7A816D",
"x 	c #595E71",
"y 	c #52576B",
"z 	c #4C5168",
"A 	c #474B65",
"B 	c #444964",
"C 	c #464B66",
"D 	c #4C5169",
"E 	c #53586B",
"F 	c #505574",
"G 	c #4A4E71",
"H 	c #45496F",
"I 	c #464A6E",
"J 	c #4A4E6F",
"K 	c #505470",
"L 	c #565A74",
"M 	c #737883",
"N 	c #6A6F78",
"O 	c #777C81",
"P 	c #989184",
"Q 	c #8B8580",
"R 	c #5F6577",
"S 	c #6D6F79",
"T 	c #80817C",
"U 	c #5F7273",
"V 	c #4F546C",
"W 	c #484D69",
"X 	c #424767",
"Y 	c #414567",
"Z 	c #454A67",
"` 	c #4C516A",
" .	c #55596D",
"..	c #525774",
"+.	c #494E72",
"@.	c #424770",
"#.	c #40456E",
"$.	c #44496E",
"%.	c #4A4F6E",
"&.	c #525771",
"*.	c #6E737E",
"=.	c #626773",
"-.	c #666B73",
";.	c #8E877D",
">.	c #666A7A",
",.	c #575C72",
"'.	c #626875",
").	c #4A4E6C",
"!.	c #424669",
"~.	c #3E4369",
"{.	c #404568",
"].	c #474C69",
"^.	c #50556C",
"/.	c #4E5273",
"(.	c #444871",
"_.	c #3E436F",
":.	c #3E436D",
"<.	c #4D5270",
"[.	c #5C6271",
"}.	c #5A5F6B",
"|.	c #6C7178",
"1.	c #5B6076",
"2.	c #515770",
"3.	c #5D6274",
"4.	c #494E6D",
"5.	c #43476C",
"6.	c #3E426B",
"7.	c #3E436A",
"8.	c #44486A",
"9.	c #4D516C",
"0.	c #4F5172",
"a.	c #484970",
"b.	c #40446E",
"c.	c #3F446E",
"d.	c #45496E",
"e.	c #4B4F6F",
"f.	c #575C6F",
"g.	c #525769",
"h.	c #636872",
"i.	c #555B74",
"j.	c #4D526F",
"k.	c #44486D",
"l.	c #3E436C",
"m.	c #3D426B",
"n.	c #41466B",
"o.	c #4A4F6B",
"p.	c #464A71",
"q.	c #41456F",
"r.	c #41436E",
"s.	c #41446D",
"t.	c #474B6E",
"u.	c #616676",
"v.	c #52576D",
"w.	c #4D5267",
"x.	c #5C616D",
"y.	c #535874",
"z.	c #494E70",
"A.	c #42466E",
"B.	c #3D416D",
"C.	c #3D416C",
"D.	c #4A4F6D",
"E.	c #4F5472",
"F.	c #474B71",
"G.	c #3F4370",
"H.	c #3B3F6E",
"I.	c #3D426C",
"J.	c #5A6073",
"K.	c #4D526B",
"L.	c #4A4F67",
"M.	c #474B70",
"N.	c #4C516F",
"O.	c #5A5F73",
"P.	c #3F436D",
"Q.	c #3C406D",
"R.	c #41456D",
"S.	c #505572",
"T.	c #464A70",
"U.	c #3D4170",
"V.	c #3C406C",
"W.	c #40446B",
"X.	c #545970",
"Y.	c #484D6A",
"Z.	c #494E67",
"`.	c #595D6D",
" +	c #474B6F",
".+	c #535871",
"++	c #393D6C",
"@+	c #383C6D",
"#+	c #3D416F",
"$+	c #414570",
"%+	c #3F4371",
"&+	c #3B3E6E",
"*+	c #363A68",
"=+	c #393C67",
"-+	c #4E526E",
";+	c #444969",
">+	c #494E68",
",+	c #585D6D",
"'+	c #565B76",
")+	c #484C71",
"!+	c #434870",
"~+	c #3D406F",
"{+	c #32346B",
"]+	c #3C4071",
"^+	c #3F4374",
"/+	c #3E4173",
"(+	c #373B6C",
"_+	c #2F3265",
":+	c #545971",
"<+	c #484C6D",
"[+	c #434769",
"}+	c #4B5069",
"|+	c #4B4F73",
"1+	c #525770",
"2+	c #404470",
"3+	c #3A3E6E",
"4+	c #3E426E",
"5+	c #42476E",
"6+	c #4B506F",
"7+	c #484D72",
"8+	c #42466D",
"9+	c #4E5370",
"0+	c #43486C",
"a+	c #4E536A",
"b+	c #4E5373",
"c+	c #434770",
"d+	c #454A70",
"e+	c #3C406F",
"f+	c #3C406E",
"g+	c #474B72",
"h+	c #3E426D",
"i+	c #494D6E",
"j+	c #535872",
"k+	c #474C6E",
"l+	c #464B69",
"m+	c #53586C",
"n+	c #545875",
"o+	c #464B72",
"p+	c #414571",
"q+	c #454A6F",
"r+	c #4A4F71",
"s+	c #40446D",
"t+	c #484D6D",
"u+	c #4F5474",
"v+	c #454971",
"w+	c #3E4270",
"x+	c #4C5070",
"y+	c #43476D",
"z+	c #42466B",
"A+	c #4A4F6A",
"B+	c #424671",
"C+	c #484D6E",
"D+	c #555A72",
"E+	c #464A6F",
"F+	c #464A6C",
"G+	c #4E5274",
"H+	c #4E5270",
"I+	c #525773",
"J+	c #40446C",
"K+	c #404571",
"L+	c #44486F",
"M+	c #464B6D",
"N+	c #4E536D",
"O+	c #4C5172",
"P+	c #484C70",
"Q+	c #41466F",
"R+	c #41466C",
"S+	c #494E6B",
"T+	c #505472",
"U+	c #424771",
"V+	c #404570",
"W+	c #515570",
"X+	c #4E5272",
"Y+	c #444870",
"Z+	c #44486B",
"`+	c #45496C",
" @	c #484C6E",
".@	c #3D416A",
"+@	c #3E4269",
"@@	c #484D6F",
"#@	c #4F5473",
"$@	c #454A71",
"%@	c #42476C",
"&@	c #515670",
"*@	c #444970",
"=@	c #515671",
"-@	c #3C4069",
";@	c #434868",
">@	c #4F546B",
",@	c #4A4F72",
"'@	c #43476E",
")@	c #4A4E6E",
"!@	c #474C72",
"~@	c #40456D",
"{@	c #45496A",
"]@	c #40456F",
"^@	c #4C506F",
"/@	c #3F4369",
"(@	c #3E4367",
"_@	c #474C68",
":@	c #414670",
"<@	c #40446F",
"[@	c #4C516E",
"}@	c #494D72",
"|@	c #494D6A",
"1@	c #515674",
"2@	c #454970",
"3@	c #3F416D",
"4@	c #44476D",
"5@	c #474B6C",
"6@	c #3F4368",
"7@	c #444867",
"8@	c #4F5369",
"9@	c #424670",
"0@	c #3F436F",
"a@	c #454A6E",
"b@	c #4A4E72",
"c@	c #434772",
"d@	c #3F446B",
"e@	c #444869",
"f@	c #4C5071",
"g@	c #4D516F",
"h@	c #454A6A",
"i@	c #414566",
"j@	c #393C6D",
"k@	c #414574",
"l@	c #414573",
"m@	c #3C416C",
"n@	c #393D65",
"o@	c #545975",
"p@	c #464B70",
"q@	c #494E6E",
"r@	c #51566F",
"s@	c #434867",
"t@	c #454A66",
"u@	c #393D6F",
"v@	c #444873",
"w@	c #424672",
"x@	c #393D68",
"y@	c #43486A",
"z@	c #4D5272",
"A@	c #42476D",
"B@	c #474C6D",
"C@	c #5A5E73",
"D@	c #51556E",
"E@	c #444965",
"F@	c #4B5066",
"G@	c #43476F",
"H@	c #4E5372",
"I@	c #41466E",
"J@	c #3F436C",
"K@	c #42466A",
"L@	c #535873",
"M@	c #464B6C",
"N@	c #595E72",
"O@	c #50556D",
"P@	c #434864",
"Q@	c #515568",
"R@	c #464B6E",
"S@	c #41456C",
"T@	c #5B6077",
"U@	c #4B4F70",
"V@	c #45496B",
"W@	c #555A6E",
"X@	c #3F4361",
"Y@	c #565B6B",
"Z@	c #595C72",
"`@	c #4A4D70",
" #	c #434771",
".#	c #4A4E6D",
"+#	c #42466C",
"@#	c #414669",
"##	c #454967",
"$#	c #41456B",
"%#	c #606576",
"&#	c #646975",
"*#	c #545969",
"=#	c #5E626E",
"-#	c #4A4E73",
";#	c #44486C",
">#	c #4B506B",
",#	c #54596E",
"'#	c #575C75",
")#	c #585D73",
"!#	c #6C717C",
"~#	c #71757F",
"{#	c #5F646F",
"]#	c #676C74",
"^#	c #474C71",
"/#	c #474C6F",
"(#	c #4E536F",
"_#	c #434869",
":#	c #4A4E6A",
"<#	c #53576C",
"[#	c #646979",
"}#	c #787D85",
"|#	c #81858E",
"1#	c #71767E",
"2#	c #6F737B",
"3#	c #50556F",
"4#	c #494E6C",
"5#	c #4F546A",
"6#	c #575C6D",
"7#	c #6C7180",
"8#	c #787C85",
"9#	c #81858F",
"0#	c #7A7E87",
"a#	c #80858C",
"b#	c #595E76",
"c#	c #4A4F70",
"d#	c #4C5170",
"e#	c #4F546D",
"f#	c #464B68",
"g#	c #474C66",
"h#	c #4C5167",
"i#	c #54596A",
"j#	c #5D616E",
"k#	c #666A74",
"l#	c #7D828C",
"m#	c #7B8088",
"n#	c #82878D",
"o#	c #7E828D",
"p#	c #727783",
"q#	c #6B717F",
"r#	c #64697A",
"s#	c #5D6276",
"t#	c #565B73",
"u#	c #505571",
"v#	c #555972",
"w#	c #585D70",
"x#	c #53586D",
"y#	c #4F536A",
"z#	c #515667",
"A#	c #585D6A",
"B#	c #61656F",
"C#	c #6E737A",
"D#	c #757A80",
"E#	c #83878D",
"F#	c #717783",
"G#	c #666C7B",
"H#	c #606577",
"I#	c #5C6175",
"J#	c #5A5F74",
"K#	c #5A5F75",
"L#	c #5C6170",
"M#	c #5A5F6D",
"N#	c #5B5F6C",
"O#	c #5E626D",
"P#	c #636770",
"Q#	c #6B7076",
"R#	c #787D82",
"                                                                                                                                ",
"                                                                                                                                ",
"                                                                                                                                ",
"                                                                                                                                ",
"                                                                                                                                ",
"                                                                                                                                ",
"                                                                                                                                ",
"                                                                                                                                ",
"                                                                                                                                ",
"                                                                                                                                ",
"                                                                                                                                ",
"                                                                                                                                ",
"                                                                                                                                ",
"                                                                                                                                ",
"                                                                                                                                ",
"        . + @ # $                                                                                                               ",
"      % & * = - ; >                                                                                                             ",
"      , ' ) ! ~ { ] ^ / (                                                                                 _ : < [ } | 1         ",
"      2 3 4 5 6 7 8 9 0 a b c d                                                                   e f g h i j k l m n o p       ",
"      q r s t u v w   x y z A B C D E                                                         F G H I J K L         M N O       ",
"        P Q R S T U           V W X Y Z `  .                                            ..+.@.#.$.%.&.            *.=.-.        ",
"          ;.>.,.'.                  ).!.~.{.].^.                                    /.(._.:.$.<.                  [.}.|.        ",
"              1.2.3.                    4.5.6.7.8.9.                          f 0.a.b.c.d.e.                    f.g.h.          ",
"                i.j.,.                      e.k.l.m.n.o.                  ..p.q.r.s.t.                      u.v.w.x.            ",
"                  y.z.&.                          A.B.C.n.D.          E.F.G.H.I.5.                        J.K.L.d               ",
"                    ..M.N.O.                          P.Q.Q.R.4.  S.T.U.H.V.W.                          X.Y.Z.`.                ",
"                      y.M. +.+                            ++@+#+$+%+&+*+=+                            -+;+>+,+                  ",
"                        '+)+!+N.                          ~+{+]+^+/+(+_+                          :+<+[+}+                      ",
"                            |+@. +1+                    2+3+4+5+6+7+$+&+++8+                    9+0+8.a+                        ",
"                              b+(.c+6+              d+e+f+R.%.        g+G.H.h+i+            j+k+n.l+m+                          ",
"                                n+o+p+q+K       r+b.f+s+t+              u+v+w+f+8+        x+y+z+A+                              ",
"                                    G B+q.C+D+E+Q.I.F+                      G+!+#+4+H+I+q+J+8.a+                                ",
"                                      E.o+K+L+k+M+N+                            O+)+P+Q+R+S+                                    ",
"                                      T+E+E+U+V+t.W+                            X+Y+b.Z+`+ @                                    ",
"                                     @.@+@S+g o+p+Q+@@                      #@$@b.%@S+&@*@#+R.j.                                ",
"                                =@%@-@;@>@      ,@(.2+'@)@              g !@$+~@{@        ,@]@4+t.                              ",
"                              ^@/@(@_@              F.:@<@j [@        }@B+<@5.|@            1@2@3@4@j+                          ",
"                            5@6@7@8@                    9@0@q.a@<.b@c@2+d@e@                    f@8+~@g@                        ",
"                        D+h@i@}+                          q.j@G.k@l@m@n@                          o@p@R.q@                      ",
"                      r@s@t@y                             B+u@%+v@w@B.x@y@                            z@A@B@C@                  ",
"                    D@E@F@d                           7+p+%+G@t+  H@M.I@J@K@o.                          L@t.M@N@                ",
"                  O@P@Q@                          )+B+2+'@t+          E.R@S@J+y@Y.                        T@U@V@N@              ",
"                W@X@Y@                      Z@`@ #V+j .#                  S. @+#W.@###                        X+$#%#            ",
"              &#*#=#                    1@-# #$+E+[@                            )@;#$#8.>#,#                    '#)#!#          ",
"            ~#{#]#                  u+^#@.c+/#(#                                    [@F+K@_#:#<#                  : [#}#        ",
"          |#1#2#              o@O+p.!+E+6+.+                                            3#4#;+;@_@5#6#              7#8#        ",
"          9#0#a#      : b#g c# + @d#=@                                                        e#o.f#g#h#i#j#k#      l#m#n#      ",
"          o#p#q#r#s#t#u#<.<.=@v#                                                                  w#x#y#h#b z#A#B#]#C#D#E#      ",
"            F#G#H#I#J#K#I#                                                                                L#M#N#O#P#Q#R#        ",
"                                                                                                                                ",
"                                                                                                                                ",
"                                                                                                                                ",
"                                                                                                                                ",
"                                                                                                                                ",
"                                                                                                                                ",
"                                                                                                                                ",
"                                                                                                                                ",
"                                                                                                                                ",
"                                                                                                                                ",
"                                                                                                                                ",
"                                                                                                                                ",
"                                                                                                                                ",
"                                                                                                                                ",
"                                                                                                                                "};
