/* XPM */
static char * C:\Users\Bago\Documents\runebase_icons\bitcoin16_xpm[] = {
"16 16 26 1",
" 	c None",
".	c #908D84",
"+	c #7A7A73",
"@	c #717682",
"#	c #72747C",
"$	c #606574",
"%	c #464A6B",
"&	c #606573",
"*	c #40446E",
"=	c #40446F",
"-	c #4F546C",
";	c #494E71",
">	c #42466F",
",	c #464A6F",
"'	c #464B6E",
")	c #4A4F6B",
"!	c #434770",
"~	c #43476F",
"{	c #494D70",
"]	c #54586C",
"^	c #474B70",
"/	c #464A6D",
"(	c #737782",
"_	c #616677",
":	c #4C5171",
"<	c #6D727D",
"                ",
"                ",
"                ",
"                ",
" .+           @ ",
" #$  %        & ",
"       *=*   -  ",
"    ;    >      ",
"     ,,   ,'    ",
"   )   !~   {   ",
"  ]   ^  /      ",
" (_ :         < ",
"                ",
"                ",
"                ",
"                "};
