/* XPM */
static char *_ae80666f53a4a5e858d8b41471bebf2VBKySuufqMKZuJQR[] = {
/* columns rows colors chars-per-pixel */
"32 32 117 2 ",
"   c None",
".  c #000005",
"X  c #000006",
"o  c #00000D",
"O  c #00000E",
"+  c #00000F",
"@  c #130E08",
"#  c #000011",
"$  c #000015",
"%  c #000016",
"&  c #000017",
"*  c #00001B",
"=  c #00001C",
"-  c #00001E",
";  c #00001F",
":  c #010021",
">  c #000022",
",  c #000023",
"<  c #000025",
"1  c #000026",
"2  c #000027",
"3  c #080427",
"4  c #000028",
"5  c #000029",
"6  c #00002A",
"7  c #01002A",
"8  c #00002B",
"9  c #02002B",
"0  c #00002C",
"q  c #00002D",
"w  c #02012C",
"e  c #02002D",
"r  c #02012D",
"t  c #01002E",
"y  c #00002F",
"u  c #02012F",
"i  c #16142D",
"p  c #000030",
"a  c #000031",
"s  c #020030",
"d  c #030130",
"f  c #020031",
"g  c #030131",
"h  c #030231",
"j  c #000032",
"k  c #000033",
"l  c #020032",
"z  c #030032",
"x  c #030033",
"c  c #030133",
"v  c #030232",
"b  c #000034",
"n  c #010034",
"m  c #010035",
"M  c #030034",
"N  c #030035",
"B  c #030234",
"V  c #040034",
"C  c #040134",
"Z  c #040035",
"A  c #040135",
"S  c #040234",
"D  c #040235",
"F  c #040036",
"G  c #050136",
"H  c #040037",
"J  c #050037",
"K  c #050137",
"L  c #040236",
"P  c #040237",
"I  c #040337",
"U  c #050337",
"Y  c #050436",
"T  c #040038",
"R  c #050138",
"E  c #060038",
"W  c #060138",
"Q  c #060139",
"!  c #050238",
"~  c #050338",
"^  c #050339",
"/  c #060339",
"(  c #06033A",
")  c #06033B",
"_  c #050439",
"`  c #060439",
"'  c #05043A",
"]  c #06043A",
"[  c #07053A",
"{  c #06043B",
"}  c #06043C",
"|  c #06053C",
" . c #07053C",
".. c #06053D",
"X. c #07053D",
"o. c #06043E",
"O. c #07053E",
"+. c #07063E",
"@. c #07063F",
"#. c #09063B",
"$. c #08063E",
"%. c #130A35",
"&. c #2B2A23",
"*. c #3C323C",
"=. c #4D3E29",
"-. c #533F28",
";. c #43413A",
":. c #4A4038",
">. c #66593F",
",. c #060440",
"<. c #070541",
"1. c #060442",
"2. c #070542",
"3. c #6A5940",
"4. c #635548",
"5. c #665D4E",
"6. c #685C4B",
/* pixels */
"                                                                ",
"                                                                ",
"                                                                ",
"                                                                ",
"                                                                ",
"                                                                ",
"  >.;.                                                          ",
"6.5.3.-.                                                        ",
"4.*.:.=.@ . #                                       r 1 > % - 7 ",
"  %.i &.    # * >                               c r 1       7 7 ",
"    G 3           7 7                     ^ G c           r r   ",
"    ^ ^ r               c c           _ ^               c c     ",
"      o.#.c                 G G   _ _                 G b       ",
"        o.o.Y 7               _ o._               x G b         ",
"            o.+.h         _ G       #.          G ^ c           ",
"              o.+._ r   G             o._   G ^ G c             ",
"                  $.o.G 7               G _ o.G                 ",
"                  r _ o._ c           _ o._ c G                 ",
"              1 1       #.<._ c   _ #.o.G       b r             ",
"            -             _ #.<.<.<.b             c r           ",
"        % +               _ <.<.<.#.G r             r 1         ",
"      + .           Y #.$.o.Y     ) o.) G r             -       ",
"      .         _ o.+.o.G               G ^ x r 1       % +     ",
"    1 > c Y _ +.o._                         G G b c 7 > % +     ",
"      ^ ^ ^ ^                                     b c r 7 1     ",
"                                                                ",
"                                                                ",
"                                                                ",
"                                                                ",
"                                                                ",
"                                                                ",
"                                                                "
};
