/* XPM */
static char * C:\Users\Bago\Documents\runebase_icons\bitcoin32_xpm[] = {
"32 32 128 2",
"  	c None",
". 	c #88897E",
"+ 	c #9C9789",
"@ 	c #918B75",
"# 	c #64676B",
"$ 	c #61667B",
"% 	c #707583",
"& 	c #8C8986",
"* 	c #838281",
"= 	c #8B8A7A",
"- 	c #595C66",
"; 	c #4F5368",
"> 	c #4D5268",
", 	c #4D5269",
"' 	c #4D5272",
") 	c #4E5371",
"! 	c #505472",
"~ 	c #565A75",
"{ 	c #6F7483",
"] 	c #747882",
"^ 	c #898580",
"/ 	c #686B78",
"( 	c #6C7277",
"_ 	c #494E6A",
": 	c #464A69",
"< 	c #464B6A",
"[ 	c #4A4E72",
"} 	c #454A70",
"| 	c #464A6F",
"1 	c #4A4E6F",
"2 	c #646973",
"3 	c #555A73",
"4 	c #43476C",
"5 	c #43486C",
"6 	c #474C6C",
"7 	c #474B71",
"8 	c #46496F",
"9 	c #44486E",
"0 	c #565B6C",
"a 	c #4F5372",
"b 	c #3F436D",
"c 	c #41456D",
"d 	c #464B6E",
"e 	c #444970",
"f 	c #40446F",
"g 	c #50556E",
"h 	c #4F546A",
"i 	c #4B5072",
"j 	c #4B5071",
"k 	c #3C3F6E",
"l 	c #3B3F6E",
"m 	c #404571",
"n 	c #383C6C",
"o 	c #4A4F6D",
"p 	c #4B506A",
"q 	c #4A4F72",
"r 	c #484C70",
"s 	c #424670",
"t 	c #3F436E",
"u 	c #42476E",
"v 	c #414570",
"w 	c #3E426E",
"x 	c #4B4F6B",
"y 	c #464A71",
"z 	c #484D70",
"A 	c #41466E",
"B 	c #42466D",
"C 	c #42476F",
"D 	c #474C6F",
"E 	c #464A6B",
"F 	c #454970",
"G 	c #474C6E",
"H 	c #44496E",
"I 	c #45496C",
"J 	c #42476B",
"K 	c #474C6B",
"L 	c #444971",
"M 	c #45496F",
"N 	c #44496D",
"O 	c #464A70",
"P 	c #43486F",
"Q 	c #444869",
"R 	c #42466F",
"S 	c #454A6F",
"T 	c #42466E",
"U 	c #494D6F",
"V 	c #4A4E69",
"W 	c #424671",
"X 	c #3E4270",
"Y 	c #434772",
"Z 	c #3D416B",
"` 	c #494D70",
" .	c #4C5169",
"..	c #454971",
"+.	c #444870",
"@.	c #464A6E",
"#.	c #464B70",
"$.	c #43476D",
"%.	c #45496B",
"&.	c #4D516F",
"*.	c #54596B",
"=.	c #484C71",
"-.	c #484C6F",
";.	c #44496B",
">.	c #565B73",
",.	c #6E727C",
"'.	c #4D5172",
").	c #494E71",
"!.	c #4A4E6E",
"~.	c #484C6B",
"{.	c #4E536B",
"].	c #707581",
"^.	c #747984",
"/.	c #64697A",
"(.	c #595E75",
"_.	c #525772",
":.	c #4D5271",
"<.	c #4D526B",
"[.	c #4E5369",
"}.	c #53586A",
"|.	c #5A5F6C",
"1.	c #696D76",
"2.	c #767B82",
"3.	c #6E7381",
"4.	c #626778",
"5.	c #5B6075",
"6.	c #5C616E",
"7.	c #646972",
"                                                                ",
"                                                                ",
"                                                                ",
"                                                                ",
"                                                                ",
"                                                                ",
"                                                                ",
"      .                                                         ",
"    + + @ #                                           $ %       ",
"    & * = - ; > ,                               ' ) ! ~ { ]     ",
"    ^ / (       _ : <                     [ } | 1         2     ",
"        3             4 5 6           7 8 9             0       ",
"          a               b c d   e f b             g h         ",
"            i j             k l m n               o p           ",
"              q r         s t u   v w           6 x             ",
"                  y z   A B           s C   D E                 ",
"                    F e G               7 H I                   ",
"                  J K   L }           M N   O P                 ",
"              6 Q         L R S   L T           8 U             ",
"            _ V             W X Y Z               ` 1           ",
"           .              ..+.@.  #.$.%.            a &.        ",
"        *.            =.O -.          G ;.E             >.      ",
"      ,.        '.).r                     !.~._ {.        ].    ",
"      ^./.(._.) :.                              <.[.}.|.1.2.    ",
"      3.4.5.                                          6.7.      ",
"                                                                ",
"                                                                ",
"                                                                ",
"                                                                ",
"                                                                ",
"                                                                ",
"                                                                "};
