/* XPM */
static char *f10520a775374f91a236c9606ed14a26QdMXOdi0Q3fUNY8j[] = {
/* columns rows colors chars-per-pixel */
"16 16 30 1 ",
"  c None",
". c #000015",
"X c #01001B",
"o c #00001D",
"O c #000025",
"+ c #030128",
"@ c #01002F",
"# c #000030",
"$ c #030033",
"% c #030034",
"& c #040335",
"* c #050036",
"= c #050136",
"- c #050236",
"; c #040336",
": c #050237",
"> c #060434",
", c #050238",
"< c #050339",
"1 c #050438",
"2 c #050439",
"3 c #06043B",
"4 c #06053B",
"5 c #07053B",
"6 c #06053C",
"7 c #06043D",
"8 c #342C2D",
"9 c #3E333E",
"0 c #554936",
"q c #635847",
/* pixels */
"                ",
"                ",
"                ",
"q0              ",
"98            oO",
" >            # ",
"  2    ,6    %  ",
"   62      ==   ",
"    >2=   2=    ",
"      6662      ",
"      267=      ",
" o+,66    =%@ . ",
"                ",
"                ",
"                ",
"                "
};
